<?xml version="1.0" encoding="utf-8"?>
<!-- Generator: Adobe Illustrator 24.0.2, SVG Export Plug-In . SVG Version: 6.00 Build 0)  -->
<svg version="1.1" id="Layer_1" xmlns="http://www.w3.org/2000/svg" xmlns:xlink="http://www.w3.org/1999/xlink" x="0px" y="0px"
	 viewBox="0 0 1133.86 566.93" style="enable-background:new 0 0 1133.86 566.93;" xml:space="preserve">
<style type="text/css">
	.st0{fill:#4E7636;}
	.st1{fill:#B0D35E;}
	.st2{fill:#3A2214;}
	.st3{fill:#3C2415;}
</style>
<g>
	<g>
		<path class="st0" d="M914.96,293.43c0,0-2.99,5.97-8.6,17.15c-3.46,5.21-7.33,11.98-12.73,19.33c-2.84,3.57-5.88,7.41-9.13,11.51
			c-3.2,4.15-7.38,7.86-11.38,12.17c-16.53,16.67-39.2,34.54-67.96,50.38c-28.69,15.92-63.32,29.86-102.44,39.93
			c-39.07,10.25-82.5,16.85-128.63,19.66c-23.03,1.2-46.89,2.09-71.04,1.53c-24.39-0.45-49.1-2.26-74.22-5.25
			c-25.09-3.02-50.47-7.35-75.86-13.3c-25.39-5.9-50.79-13.5-75.6-23.53c-24.81-9.92-49.18-22.15-71.58-38.08
			c-22.23-15.82-43.15-35.86-55.38-62.25c-6.07-13.18-9.17-27.7-8.61-42.71c0.21-3.34,0.23-6.51,1-10.47l0.94-5.65
			c0.4-1.82,0.94-3.53,1.4-5.29c0.5-1.75,0.93-3.52,1.51-5.24l1.95-5.06c1.19-3.43,2.86-6.6,4.47-9.8
			c13.37-25.51,34.6-44.5,56.7-59.91c11.22-7.58,22.85-14.32,34.69-20.43c11.95-5.84,23.97-11.36,36.23-15.98
			c24.4-9.56,49.24-16.71,73.88-22.47c49.33-11.52,98.14-16.48,144.32-17.71c11.58-0.36,22.88-0.34,34.24-0.19
			c11.17,0.43,22.04,0.34,32.97,1.19c10.88,0.65,21.58,1.25,31.99,2.4c5.21,0.51,10.38,1.02,15.5,1.52
			c5.1,0.67,10.14,1.33,15.14,1.99c39.95,5.27,76.07,13.63,107.24,23.54c31.19,9.9,57.47,21.31,78.05,32.59
			c20.63,11.25,35.45,22.34,45.07,30.36c4.86,3.96,8.14,7.51,10.56,9.65c2.35,2.22,3.56,3.36,3.56,3.36s-1.27-1.09-3.72-3.19
			c-2.52-2.03-5.95-5.4-10.97-9.12c-9.91-7.6-25.25-17.69-45.99-28.21c-20.76-10.46-47.15-20.84-78.32-29.54
			c-31.18-8.67-67.1-15.65-106.63-20.21c-4.94-0.54-9.94-1.09-14.98-1.65c-5.06-0.39-10.17-0.78-15.33-1.17
			c-10.32-0.92-20.83-1.28-31.5-1.69c-10.61-0.62-21.72-0.29-32.82-0.48c-10.92,0.09-22.26,0.31-33.6,0.91
			c-45.47,2.18-93.28,8.24-141.39,19.82c-24.01,5.89-48.13,13.12-71.6,22.62c-23.49,9.4-46.46,20.88-67.52,35.24
			c-20.74,14.51-39.98,32.25-51.3,54.19c-1.37,2.74-2.81,5.46-3.77,8.35l-1.64,4.26c-0.48,1.44-0.81,2.91-1.22,4.37
			c-0.38,1.45-0.85,2.93-1.16,4.36l-0.68,4.21c-0.62,2.58-0.69,6.1-0.87,9.41c-0.38,11.64,2.12,23.97,7.29,35
			c10.23,22.42,28.96,41.01,49.78,55.86c20.9,14.99,44.18,26.84,68.08,36.48c47.9,19.36,98.24,30.66,147.31,37.21
			c24.55,3.26,48.97,5.1,72.73,6.16c23.99,1.07,47.3,0.68,70.09-0.02c45.5-1.8,88.39-7.4,127.02-16.66
			c38.6-9.27,73.05-21.71,101.81-36.34c28.8-14.59,51.71-31.38,68.59-47.26c4.08-4.11,8.36-7.63,11.65-11.62
			c3.4-3.9,6.58-7.56,9.54-10.97c5.67-7,9.8-13.5,13.5-18.54C911.69,299.25,914.96,293.43,914.96,293.43z"/>
		<path class="st1" d="M777.15,425.72c0,0,96.46-60.63,168.12-44.1c0,0-27.56,38.59-77.17,42.72
			C818.49,428.47,777.15,425.72,777.15,425.72z"/>
		<path class="st1" d="M821.25,381.62c0,0-11.02-84.06,44.1-113C865.35,268.62,880.51,327.88,821.25,381.62z"/>
		<path class="st1" d="M910.59,303.07c0,0-5.86-35.16,7.03-52.74c12.89-17.58,38.68-30.47,38.68-30.47S957.47,265.57,910.59,303.07z
			"/>
		<path class="st1" d="M887.35,333.11c0,0-18.29-30.6-12.71-51.67s24.88-42.49,24.88-42.49S917.3,281.08,887.35,333.11z"/>
		<path class="st1" d="M894.29,333.39c0,0,55.12-67.52,97.84-63.39C992.13,270,990.75,312.72,894.29,333.39z"/>
		<path class="st1" d="M846.98,380.1c0,0,48.33-45.69,128.99-56.21C975.98,323.89,964.81,366.24,846.98,380.1z"/>
		<g>
			<path class="st0" d="M821.25,381.62c0,0,0.44-1.34,1.21-3.69c0.79-2.34,1.91-5.69,3.27-9.7c1.38-4,2.99-8.67,4.72-13.68
				c1.76-4.99,3.63-10.32,5.51-15.64c1.92-5.31,3.84-10.62,5.63-15.6c1.79-4.98,3.54-9.6,5.01-13.57c1.49-3.96,2.74-7.26,3.61-9.57
				c0.89-2.31,1.4-3.62,1.4-3.62s-0.44,1.34-1.21,3.69c-0.79,2.34-1.91,5.69-3.27,9.7c-1.38,4-2.96,8.69-4.72,13.68
				c-1.76,4.99-3.64,10.32-5.51,15.64c-1.92,5.31-3.84,10.62-5.64,15.6c-1.83,4.97-3.54,9.6-5.01,13.57
				c-1.49,3.96-2.74,7.26-3.61,9.58C821.76,380.3,821.25,381.62,821.25,381.62z"/>
		</g>
		<g>
			<path class="st0" d="M886.81,330.99c0,0,0.04-0.94,0.1-2.57c0.09-1.64,0.17-3.98,0.34-6.78c0.17-2.8,0.33-6.07,0.58-9.57
				c0.25-3.5,0.51-7.23,0.78-10.97c0.31-3.73,0.62-7.46,0.91-10.96c0.29-3.5,0.63-6.75,0.89-9.55c0.26-2.8,0.54-5.12,0.7-6.75
				c0.19-1.63,0.29-2.56,0.29-2.56s-0.04,0.94-0.1,2.57c-0.09,1.64-0.17,3.98-0.34,6.78c-0.17,2.8-0.33,6.07-0.58,9.57
				c-0.25,3.5-0.51,7.23-0.78,10.97c-0.31,3.73-0.62,7.46-0.91,10.96c-0.29,3.5-0.63,6.75-0.89,9.55c-0.26,2.8-0.54,5.12-0.7,6.75
				C886.92,330.06,886.81,330.99,886.81,330.99z"/>
		</g>
		<g>
			<path class="st0" d="M911.31,301.14c0,0,0.39-0.86,1.06-2.38c0.7-1.5,1.66-3.67,2.87-6.24c1.22-2.57,2.6-5.58,4.15-8.77
				c1.55-3.19,3.2-6.6,4.86-10.01c1.69-3.39,3.39-6.77,4.98-9.95c1.58-3.18,3.13-6.11,4.43-8.64c1.3-2.53,2.43-4.61,3.2-6.07
				c0.79-1.46,1.24-2.29,1.24-2.29s-0.39,0.86-1.06,2.38c-0.7,1.5-1.65,3.67-2.87,6.24c-1.22,2.57-2.6,5.58-4.15,8.77
				c-1.55,3.19-3.21,6.6-4.86,10.01c-1.69,3.39-3.39,6.77-4.98,9.95c-1.59,3.18-3.13,6.11-4.43,8.64c-1.3,2.53-2.43,4.61-3.2,6.08
				C911.76,300.31,911.31,301.14,911.31,301.14z"/>
		</g>
		<g>
			<path class="st0" d="M897.15,332.14c0,0,1.18-0.85,3.25-2.33c2.08-1.47,5.05-3.57,8.61-6.09c3.58-2.49,7.76-5.4,12.23-8.52
				c4.5-3.09,9.29-6.39,14.09-9.68c4.82-3.26,9.64-6.52,14.16-9.57c4.52-3.06,8.78-5.85,12.41-8.27c3.65-2.39,6.69-4.39,8.82-5.79
				c2.14-1.38,3.36-2.17,3.36-2.17s-1.18,0.85-3.25,2.33c-2.08,1.47-5.05,3.57-8.61,6.09c-3.58,2.49-7.74,5.44-12.23,8.52
				c-4.5,3.09-9.29,6.38-14.09,9.68c-4.82,3.26-9.64,6.52-14.16,9.57c-4.54,3.03-8.77,5.85-12.41,8.27
				c-3.65,2.39-6.69,4.39-8.82,5.79C898.37,331.35,897.15,332.14,897.15,332.14z"/>
		</g>
		<g>
			<path class="st0" d="M850.46,378.07c0,0,1.49-0.65,4.11-1.78c2.62-1.12,6.36-2.72,10.86-4.64c4.5-1.89,9.76-4.09,15.39-6.45
				c5.64-2.33,11.66-4.81,17.68-7.3c6.04-2.44,12.07-4.89,17.73-7.18c5.67-2.26,10.97-4.37,15.5-6.17
				c4.55-1.78,8.34-3.26,10.99-4.29c2.66-1.02,4.18-1.6,4.18-1.6s-1.49,0.65-4.11,1.78c-2.62,1.12-6.36,2.72-10.86,4.64
				c-4.5,1.89-9.76,4.09-15.39,6.45c-5.64,2.33-11.66,4.81-17.68,7.3c-6.04,2.44-12.07,4.89-17.73,7.18
				c-5.67,2.26-10.97,4.37-15.5,6.17c-4.55,1.78-8.34,3.26-10.99,4.3C851.98,377.48,850.46,378.07,850.46,378.07z"/>
		</g>
		<g>
			<path class="st0" d="M778.51,425.14c-0.06-0.11,1.89-0.74,5.31-1.67c3.43-0.92,8.33-2.21,14.23-3.67
				c5.91-1.45,12.79-3.15,20.19-4.89c7.4-1.73,15.3-3.57,23.19-5.41c7.91-1.78,15.82-3.56,23.23-5.23
				c7.43-1.62,14.36-3.14,20.3-4.44c5.95-1.26,10.91-2.31,14.37-3.05c3.47-0.72,5.46-1.13,5.46-1.13s-7.88,1.89-19.71,4.73
				c-5.92,1.39-12.83,3-20.23,4.73c-7.41,1.71-15.3,3.53-23.2,5.35c-15.81,3.59-31.62,7.18-43.48,9.87
				c-5.92,1.36-10.87,2.47-14.31,3.31c-1.72,0.42-3.08,0.75-3.99,1C778.96,424.91,778.48,425.09,778.51,425.14z"/>
		</g>
	</g>
	<g>
		<path class="st2" d="M384.2,373.29c-1.9-0.3-3.65-0.55-5.24-0.75l-16.78-2.1c-3.4-0.4-5.84-0.95-7.34-1.65
			c-1.5-0.7-2.25-1.84-2.25-3.45c0-1.6,0.45-2.85,1.35-3.74c0.9-0.9,1.9-1.95,3-3.15c1.1-1.2,2.14-2.89,3.15-5.09
			c1-2.2,1.6-5.29,1.8-9.29c0.6-11.98,1.1-24.27,1.5-36.85c0.4-12.58,0.6-24.27,0.6-35.05c0-4.39-0.15-9.14-0.45-14.23
			c-0.3-5.09-0.7-10.13-1.2-15.13c-0.5-4.99-1.05-9.63-1.65-13.93c-0.6-4.29-1.2-7.84-1.8-10.64c-0.4-1.8-1.25-2.85-2.55-3.15
			c-1.3-0.3-2.6-0.55-3.9-0.75c-1.3-0.2-2.5-0.55-3.6-1.05c-1.1-0.5-1.65-1.84-1.65-4.04c0-2.79,0.75-4.74,2.25-5.84
			c1.5-1.1,4.84-2.44,10.04-4.04l20.97-5.99c4.39-1.2,7.94-2.05,10.64-2.55c2.7-0.5,4.74-0.75,6.14-0.75c0.6,0,3,0.2,7.19,0.6
			c4.19,0.4,9.24,1.4,15.13,3c5.89,1.6,12.23,3.95,19.03,7.04c6.79,3.1,13.03,7.34,18.73,12.73c5.69,5.39,10.43,12.13,14.23,20.22
			c3.79,8.09,5.69,17.83,5.69,29.21c0,10.39-0.3,19.53-0.9,27.41c-0.6,7.89-1.65,14.93-3.15,21.12c-1.5,6.19-3.45,11.83-5.84,16.93
			c-2.4,5.09-5.39,10.14-8.99,15.13c-2.2,3-5.24,5.84-9.14,8.54c-3.89,2.7-8.19,5.14-12.88,7.34c-4.7,2.2-9.54,4.19-14.53,5.99
			c-4.99,1.8-9.64,3.3-13.93,4.49c-4.3,1.2-8.04,2.14-11.24,2.85c-3.2,0.7-5.39,1.05-6.59,1.05
			C388.04,373.74,386.09,373.59,384.2,373.29z M382.4,319.06c-0.1,7.29-0.15,14.04-0.15,20.22c0,7.59,0.8,12.39,2.4,14.38
			c1.6,2,4.19,3,7.79,3c9.39,0,17.93-1.2,25.62-3.6c7.69-2.4,14.33-6.79,19.92-13.18c5.59-6.39,9.93-15.08,13.03-26.07
			c3.09-10.98,4.64-25.06,4.64-42.24c0-12.58-2.2-23.07-6.59-31.46c-4.4-8.39-9.54-15.13-15.43-20.22
			c-5.89-5.09-11.74-8.74-17.53-10.94c-5.8-2.2-10.09-3.3-12.88-3.3c-3.4,0-7.09,0.65-11.09,1.95c-4,1.3-7.19,2.75-9.59,4.34v84.79
			C382.55,304.33,382.5,311.77,382.4,319.06z"/>
		<path class="st2" d="M517.41,353.52c0.9-0.9,1.84-1.35,2.85-1.35c2.79,0,6.09,0.95,9.89,2.85c3.79,1.9,8.49,2.85,14.08,2.85
			c5.39,0,9.74-1.84,13.03-5.54c3.3-3.69,4.94-7.74,4.94-12.13c0-3.99-0.95-8.69-2.85-14.08c-1.9-5.39-4.25-11.13-7.04-17.23
			c-2.8-6.09-5.84-12.38-9.14-18.88c-3.3-6.49-6.34-12.78-9.14-18.88c-2.8-6.09-5.15-11.83-7.04-17.23
			c-1.9-5.39-2.85-9.99-2.85-13.78c0-3.39,1.35-8.24,4.04-14.53s6.29-12.63,10.79-19.03c4.49-6.39,9.69-11.93,15.58-16.63
			c5.89-4.69,12.03-7.04,18.43-7.04c1.4,0,3.45,0.15,6.14,0.45c2.7,0.3,5.34,0.8,7.94,1.5c2.59,0.7,4.89,1.6,6.89,2.7
			c1.99,1.1,3,2.45,3,4.04c0,4-0.75,6.59-2.25,7.79c-1.5,1.2-5.05,1.9-10.64,2.1c-13.18,0.4-22.67,3.45-28.46,9.14
			c-5.8,5.69-8.69,12.73-8.69,21.12c0,5.2,1.69,11.74,5.09,19.62c3.39,7.89,7.14,16.38,11.24,25.47
			c4.09,9.09,7.84,18.48,11.24,28.16c3.39,9.69,5.09,18.93,5.09,27.71c0,1.6-0.5,4.9-1.5,9.89c-1,5-2.85,10.14-5.54,15.43
			c-2.7,5.29-6.29,10.04-10.79,14.23c-4.49,4.19-10.34,6.29-17.53,6.29c-1.8,0-4.1-0.3-6.89-0.9c-2.8-0.6-5.54-1.4-8.24-2.4
			c-2.7-1-5.09-2.05-7.19-3.15c-2.1-1.1-3.35-2.14-3.74-3.15c-0.6-1.8-1.1-3.54-1.5-5.24c-0.4-1.69-0.6-3.54-0.6-5.54
			C516.06,355.96,516.51,354.42,517.41,353.52z"/>
		<path class="st2" d="M653.58,253c-0.3-5.99-0.45-11.58-0.45-16.78c0-2.79-0.1-5.14-0.3-7.04c-0.2-1.9-0.9-3.54-2.1-4.94
			c-2-2.2-3.35-4.14-4.04-5.84c-0.7-1.69-1.05-3.34-1.05-4.94c0-1.2,0.9-2.89,2.7-5.09c1.8-2.2,3.9-4.29,6.29-6.29
			c2.4-1.99,4.84-3.74,7.34-5.24c2.5-1.5,4.44-2.25,5.84-2.25c2.2,0,4.69,0.85,7.49,2.55c2.79,1.7,4.19,3.15,4.19,4.34
			c0,2.4-0.45,4.84-1.35,7.34c-0.9,2.5-1.45,5.44-1.65,8.84c-0.8,8.79-1.45,23.52-1.95,44.19c-0.5,20.67-0.75,48.99-0.75,84.94
			c0,11.98-0.75,19.92-2.25,23.82c-1.5,3.89-3.95,5.84-7.34,5.84c-1.4,0-2.65-0.25-3.75-0.75c-1.1-0.5-2.05-1.75-2.85-3.74
			c-0.8-1.99-1.45-5.04-1.95-9.14c-0.5-4.09-0.85-9.78-1.05-17.08c-0.2-7.29-0.35-16.48-0.45-27.56c-0.1-11.09-0.15-24.52-0.15-40.3
			C654.03,267.28,653.88,258.99,653.58,253z"/>
	</g>
	<g>
		<path class="st3" d="M306.66,456.98c-0.73-1.44-1.66-2.72-2.76-3.8c-1.08-1.06-2.15-1.95-3.17-2.67
			c-1.02-0.71-1.93-1.26-2.72-1.63c-1.03-0.49-1.27-0.59-1.36-0.62c-0.29-0.11-0.71-0.2-1.3-0.3c-0.56-0.09-1.28-0.17-2.23-0.25
			l-4.37-0.29c-1.17-0.06-1.91-0.02-2.33,0.1c-0.52,0.15-0.9,0.58-1.15,1.26c-0.22,0.62-0.17,1.09,0.16,1.4
			c0.21,0.2,0.45,0.38,0.72,0.52c0.22,0.12,0.44,0.25,0.65,0.39c0.06,0.04,0.05,0.19,0.04,0.28c-0.07,0.55-0.2,1.26-0.38,2.09
			c-0.18,0.84-0.39,1.75-0.63,2.72c-0.24,0.97-0.51,1.94-0.79,2.91c-0.28,0.96-0.58,1.87-0.87,2.69c-0.72,2-1.56,4.21-2.48,6.55
			c-0.93,2.34-1.85,4.62-2.78,6.83c-0.28,0.68-0.57,1.17-0.86,1.47c-0.3,0.31-0.57,0.53-0.81,0.65c-0.28,0.15-0.53,0.27-0.76,0.38
			c-0.35,0.17-0.61,0.47-0.77,0.9c-0.17,0.48-0.06,0.96,0.31,1.33c0.28,0.28,0.74,0.57,1.4,0.9l3.02,1.53
			c0.28,0.14,0.59,0.31,0.92,0.49h0c0.36,0.2,0.74,0.37,1.14,0.51c0.27,0.1,0.72,0.18,1.42,0.27c0.66,0.08,1.44,0.16,2.34,0.23
			c0.9,0.06,1.9,0.1,2.97,0.1c1.08,0,2.15-0.05,3.19-0.15c1.06-0.1,2.07-0.27,3.01-0.52c0.97-0.26,1.79-0.61,2.46-1.06
			c1.03-0.71,1.97-1.48,2.79-2.3c0.82-0.82,1.6-1.79,2.31-2.87c0.71-1.08,1.41-2.38,2.06-3.84c0.65-1.45,1.34-3.18,2.04-5.14
			c0.79-2.2,1.11-4.26,0.93-6.11C307.85,460.1,307.39,458.43,306.66,456.98z M301.49,467.88c-1.14,3.18-2.38,5.71-3.67,7.52
			c-1.28,1.79-2.65,3.1-4.06,3.88c-1.4,0.78-2.88,1.14-4.38,1.07c-1.55-0.07-3.21-0.41-4.92-1.03c-0.53-0.19-0.85-0.45-0.96-0.78
			c-0.06-0.17-0.12-0.75,0.52-2.54c0.42-1.17,0.88-2.43,1.4-3.79h0c0.51-1.37,1.03-2.77,1.54-4.2l5.65-15.72
			c0.47-0.09,1.04-0.12,1.71-0.1c0.78,0.02,1.48,0.14,2.07,0.36c0.32,0.12,0.94,0.45,2.05,1.4c0.89,0.76,1.72,1.81,2.45,3.11
			c0.73,1.3,1.23,2.87,1.48,4.68C302.6,463.53,302.31,465.59,301.49,467.88z"/>
		<path class="st3" d="M336.61,461.08c-1.68-0.48-3.42-0.6-5.2-0.35c-1.79,0.25-3.55,1.04-5.22,2.36c-1.65,1.3-3.24,3.19-4.72,5.62
			c-1.47,2.42-2.78,5.61-3.89,9.48c-0.31,1.09-0.6,2.25-0.87,3.47c-0.27,1.24-0.42,2.52-0.45,3.81c-0.03,1.3,0.11,2.6,0.41,3.86
			c0.31,1.29,0.89,2.52,1.73,3.68c0.84,1.15,1.99,2.21,3.44,3.16c1.44,0.95,3.3,1.75,5.53,2.39c1.14,0.33,2.04,0.49,2.74,0.49
			c0.26,0,0.48-0.02,0.69-0.07c0.32-0.07,1.29-0.28,1.5-1.03c0.25-0.86-0.02-1.34-0.28-1.6c-0.31-0.3-0.9-0.57-1.85-0.84
			c-3.79-1.08-6.25-2.99-7.33-5.67c-1.05-2.63-1-6.13,0.16-10.4c1.04,0.27,2.21,0.57,3.49,0.92c1.49,0.41,3.15,0.79,4.89,1.12
			c0.29,0.08,0.65,0.06,1.09-0.09c0.36-0.11,0.75-0.27,1.15-0.46c0.4-0.19,0.76-0.39,1.07-0.59c0.4-0.27,0.61-0.49,0.68-0.73v0
			c0.11-0.39,0.03-0.77-0.23-1.07c-0.22-0.24-0.55-0.42-1.01-0.56l-7.79-2.23c-0.64-0.18-1.23-0.24-1.77-0.19
			c-0.14,0.02-0.29,0.04-0.42,0.06c0.86-2.36,1.74-4.3,2.63-5.77c0.99-1.65,1.99-2.9,2.96-3.71c0.94-0.79,1.85-1.25,2.73-1.37
			c0.9-0.13,1.79-0.07,2.64,0.18l3.4,0.98c0.51,0.15,0.96,0.1,1.32-0.14c0.35-0.23,0.6-0.61,0.75-1.15
			c0.24-0.85,0.02-1.58-0.64-2.13C339.41,462.03,338.31,461.57,336.61,461.08z"/>
		<path class="st3" d="M376.67,473.32c-0.38-0.08-0.86-0.14-1.47-0.17c-0.59-0.02-1.18-0.01-1.77,0.05
			c-0.6,0.06-1.15,0.17-1.62,0.33c-0.62,0.21-0.98,0.54-1.08,1c-0.13,0.56-0.26,1.44-0.4,2.61c-0.13,1.13-0.35,2.39-0.65,3.74
			c-0.23,1.01-0.46,2-0.69,2.97c-0.19,0.78-0.37,1.49-0.55,2.14l-14.6-3.26c0.35-1.26,0.68-2.58,1-3.93c0.36-1.52,0.7-2.99,1-4.37
			c0.23-0.86,0.55-1.58,0.95-2.12c0.49-0.66,0.77-1.19,0.86-1.61c0.08-0.37-0.07-0.76-0.47-1.2c-0.3-0.33-0.68-0.67-1.12-1
			c-0.44-0.33-0.91-0.64-1.4-0.92c-0.52-0.3-0.97-0.49-1.37-0.58c-0.52-0.12-1.05-0.08-1.57,0.09c-0.48,0.16-0.92,0.36-1.31,0.61
			c-0.38,0.24-0.71,0.5-0.98,0.76c-0.32,0.32-0.48,0.55-0.53,0.77c-0.1,0.45,0,0.9,0.27,1.3c0.21,0.3,0.46,0.63,0.74,0.96
			c0.25,0.29,0.45,0.62,0.61,0.96c0.13,0.29,0.16,0.61,0.07,0.99c-0.13,0.75-0.28,1.63-0.47,2.65c-0.19,1.02-0.4,2.12-0.64,3.29
			c-0.24,1.17-0.5,2.36-0.77,3.57l-0.76,3.4c-0.55,2.44-1.13,4.77-1.72,6.9c-0.6,2.16-1.14,4.28-1.59,6.31
			c-0.13,0.57-0.12,1.03,0.01,1.41c0.11,0.32,0.4,0.73,1.16,0.9c1.01,0.22,1.86,0.12,2.52-0.32c0.65-0.43,1.1-1.18,1.33-2.22
			l2.22-9.96c0.07-0.3,0.16-0.64,0.29-1.02c0.08-0.26,0.18-0.49,0.29-0.69c0.57-0.01,1.42,0.06,2.53,0.19
			c1.32,0.15,2.79,0.37,4.35,0.63c1.58,0.27,3.14,0.55,4.7,0.83c1.32,0.24,2.47,0.47,3.43,0.67l-2.38,13.31
			c-0.13,0.79-0.06,1.32,0.19,1.68c0.25,0.35,0.7,0.6,1.38,0.75c0.1,0.02,0.2,0.03,0.31,0.03c0.31,0,0.61-0.1,0.9-0.3
			c0.31-0.22,0.6-0.5,0.85-0.83c0.25-0.32,0.46-0.64,0.65-0.98c0.2-0.36,0.32-0.67,0.39-0.94l2.69-11.52
			c0.04-0.17,0.08-0.2,0.14-0.19c0.15,0.04,0.29,0.08,0.4,0.14c0.18,0.09,0.36,0.16,0.51,0.19c0.47,0.1,1.17,0.04,1.78-0.88
			c0.41-0.61,0.65-1.11,0.74-1.53c0.13-0.58,0.04-1.01-0.26-1.27c-0.22-0.19-0.53-0.34-0.92-0.42c-0.32-0.07-0.66-0.14-1-0.19
			c-0.15-0.02-0.3-0.05-0.45-0.07c0.11-0.45,0.23-0.96,0.37-1.52c0.2-0.79,0.41-1.6,0.63-2.43c0.22-0.82,0.46-1.63,0.72-2.43
			c0.26-0.79,0.52-1.52,0.79-2.17c0.24-0.57,0.48-1.02,0.7-1.35c0.24-0.35,0.44-0.63,0.61-0.85c0.17-0.22,0.31-0.4,0.44-0.54
			c0.19-0.22,0.32-0.45,0.37-0.69c0.12-0.55-0.08-0.92-0.27-1.13C377.52,473.61,377.16,473.43,376.67,473.32z"/>
		<path class="st3" d="M408.27,476.79c-0.61-0.4-1.76-0.73-3.5-1.02c-1.72-0.29-3.47-0.21-5.2,0.23c-1.75,0.45-3.41,1.43-4.93,2.93
			c-1.49,1.47-2.86,3.53-4.06,6.11c-1.19,2.57-2.13,5.88-2.8,9.85c-0.19,1.12-0.35,2.31-0.47,3.54c-0.13,1.27-0.14,2.56-0.02,3.83
			c0.12,1.29,0.4,2.57,0.84,3.79c0.45,1.24,1.17,2.41,2.13,3.46c0.96,1.04,2.23,1.97,3.77,2.75c1.53,0.78,3.47,1.37,5.76,1.75
			c0.83,0.14,1.54,0.21,2.13,0.21c0.54,0,0.98-0.06,1.33-0.18c0.31-0.1,1.25-0.42,1.38-1.19c0.15-0.88-0.17-1.33-0.46-1.56
			c-0.35-0.26-0.96-0.46-1.93-0.63c-3.89-0.65-6.55-2.27-7.92-4.82c-1.34-2.49-1.68-5.97-1.01-10.35c1.07,0.15,2.26,0.32,3.58,0.53
			c1.53,0.24,3.23,0.43,4.98,0.56c0.3,0.05,0.65-0.02,1.08-0.21c0.34-0.15,0.71-0.35,1.09-0.59c0.38-0.24,0.72-0.47,0.99-0.71
			c0.37-0.31,0.55-0.56,0.59-0.81v0c0.07-0.4-0.06-0.77-0.35-1.04c-0.24-0.22-0.59-0.36-1.06-0.44l-7.99-1.34
			c-0.65-0.11-1.25-0.11-1.78,0.01c-0.14,0.03-0.28,0.07-0.41,0.11c0.59-2.44,1.25-4.47,1.97-6.03c0.8-1.75,1.65-3.1,2.52-4.02
			c0.84-0.89,1.7-1.45,2.56-1.67c0.88-0.23,1.77-0.27,2.64-0.12l3.49,0.59c0.52,0.09,0.96-0.01,1.3-0.29
			c0.32-0.26,0.53-0.68,0.62-1.23C409.29,477.96,408.99,477.26,408.27,476.79z"/>
		<path class="st3" d="M434.82,480.79c0.05-0.35-0.04-0.87-0.69-1.35c-0.4-0.29-0.87-0.55-1.4-0.77c-0.52-0.21-1.06-0.39-1.61-0.53
			c-0.55-0.14-0.96-0.22-1.26-0.26c-1.38-0.18-2.78,0.15-4.17,0.99c-1.33,0.8-2.55,1.8-3.64,2.99c-1.08,1.17-1.99,2.38-2.7,3.58
			c-0.74,1.25-1.15,2.22-1.25,2.97c-0.11,0.81-0.03,1.81,0.21,2.98c0.24,1.14,0.56,2.36,0.96,3.65c0.4,1.28,0.84,2.63,1.33,4
			c0.48,1.36,0.92,2.69,1.32,3.97c0.39,1.27,0.71,2.46,0.94,3.56c0.22,1.06,0.29,1.97,0.19,2.7c-0.1,0.75-0.47,1.4-1.13,1.97
			c-0.64,0.55-1.41,0.77-2.34,0.64c-1.03-0.13-1.87-0.42-2.51-0.85c-0.78-0.52-1.46-0.82-2.11-0.91c-0.33-0.04-0.66,0.06-0.97,0.29
			c-0.31,0.24-0.5,0.64-0.58,1.22c-0.06,0.43-0.07,0.85-0.03,1.23c0.04,0.36,0.09,0.74,0.17,1.15c0.09,0.34,0.36,0.66,0.86,1.01
			c0.4,0.28,0.87,0.57,1.4,0.85c0.53,0.28,1.08,0.52,1.64,0.72c0.58,0.21,1.05,0.33,1.45,0.38c0.32,0.04,0.62,0.06,0.92,0.06
			c1.17,0,2.2-0.32,3.08-0.94c1.05-0.75,1.93-1.65,2.63-2.67c0.7-1.01,1.22-2.04,1.56-3.04c0.35-1.02,0.53-1.66,0.58-2.02
			c0.24-1.79,0.14-3.74-0.3-5.8c-0.42-2.02-0.93-4.01-1.51-5.93c-0.58-1.91-1.1-3.69-1.56-5.34c-0.45-1.58-0.61-2.87-0.49-3.83
			c0.2-1.54,0.88-2.73,2.08-3.63c1.19-0.9,3.05-1.23,5.54-0.97c1.65,0.16,2.2-0.04,2.47-0.21
			C434.41,482.36,434.7,481.75,434.82,480.79z"/>
		<path class="st3" d="M471.03,515.85c-0.52-0.82-1.21-2.01-2.04-3.56c-0.83-1.53-1.86-3.64-3.07-6.27
			c-1.9-4.16-3.48-7.97-4.69-11.34c-1.22-3.4-2.38-6.6-3.48-9.59c-0.28-0.76-0.67-1.44-1.15-2.02c-0.57-0.68-0.98-0.99-1.38-1.02
			c-0.26-0.03-0.6,0.03-1.04,0.15c-0.4,0.12-0.8,0.27-1.21,0.47c-0.41,0.2-0.77,0.42-1.07,0.66c-0.4,0.31-0.61,0.63-0.64,0.97
			c-0.02,0.18,0.01,0.41,0.09,0.69l0.4,1.54c0.07,0.25,0.06,0.34,0.06,0.35c-0.08,0.85-0.45,2.02-1.12,3.46
			c-0.69,1.48-1.55,3.11-2.55,4.82c-1.02,1.73-2.13,3.51-3.29,5.29c-1.19,1.8-2.29,3.47-3.31,5l-2.61,3.92
			c-0.99,1.49-1.21,1.93-1.27,2.09c-0.45,0.94-0.96,1.57-1.51,1.88c-0.61,0.33-1.19,0.55-1.75,0.65c-0.42,0.08-0.73,0.27-0.92,0.55
			c-0.17,0.25-0.27,0.66-0.33,1.33c-0.02,0.27,0.02,0.56,0.12,0.85c0.14,0.41,0.45,0.67,0.85,0.7c0.08,0.01,0.33,0.02,0.74,0.04
			c0.4,0.02,0.87,0.03,1.4,0.03c0.53,0.01,1.06,0,1.61-0.01c0.54-0.01,1.01-0.02,1.43-0.02c0.41-0.02,0.77-0.18,1.05-0.48
			c0.27-0.27,0.49-0.75,0.69-1.5c0.1-0.31,0.34-0.79,0.72-1.42c0.4-0.67,0.85-1.4,1.34-2.19l1.48-2.4c0.5-0.81,0.89-1.53,1.15-2.13
			c0.18-0.41,0.36-0.72,0.55-0.92c0.16-0.17,0.36-0.29,0.62-0.35c0.29-0.08,0.71-0.1,1.24-0.07c0.57,0.03,1.34,0.09,2.29,0.17
			c0.6,0.05,1.43,0.14,2.5,0.25c1.07,0.12,2.16,0.27,3.25,0.44c1.09,0.18,2.12,0.38,3.04,0.6c1.11,0.26,1.61,0.49,1.85,0.64
			c0.02,0.01,0.19,0.17,0.59,1.02c0.33,0.71,0.67,1.53,1.03,2.45c0.35,0.9,0.68,1.8,0.98,2.69c0.3,0.88,0.49,1.5,0.57,1.83
			c0.12,0.56,0.29,1.09,0.51,1.56c0.26,0.57,0.64,0.94,1.06,1.06c0.22,0.11,0.54,0.23,1,0.36c0.42,0.12,0.86,0.24,1.33,0.36
			c0.48,0.13,0.95,0.23,1.39,0.31c0.45,0.08,0.81,0.13,1.06,0.16c0.08,0.01,0.16,0.01,0.23,0.01c0.31,0,0.62-0.06,0.92-0.17
			c0.35-0.13,0.78-0.45,0.85-1.25c0.02-0.27-0.1-0.55-0.44-0.98C471.93,517.23,471.56,516.69,471.03,515.85z M459.32,503.19l-10-0.9
			c-0.26-0.02-0.41-0.06-0.49-0.09c0.04-0.1,0.11-0.25,0.27-0.49c0.23-0.36,0.61-0.99,1.14-1.87l3.67-6.05
			c0.15-0.25,0.29-0.53,0.41-0.83c0.1-0.26,0.21-0.52,0.33-0.78c0.08-0.18,0.16-0.33,0.26-0.48c0.02,0.06,0.05,0.15,0.07,0.27
			c0.1,0.55,0.35,1.3,0.77,2.3L459.32,503.19z"/>
		<path class="st3" d="M512.7,484.76c-0.43-0.25-0.92-0.46-1.47-0.63c-0.54-0.16-1.1-0.29-1.65-0.36c-0.56-0.08-0.98-0.12-1.28-0.13
			c-1.38-0.03-2.75,0.43-4.04,1.4c-1.24,0.93-2.36,2.05-3.32,3.34c-0.95,1.28-1.74,2.56-2.33,3.83c-0.61,1.32-0.92,2.33-0.94,3.08
			c-0.02,0.81,0.15,1.8,0.51,2.94c0.35,1.11,0.8,2.3,1.32,3.53c0.52,1.22,1.1,2.52,1.72,3.85c0.61,1.3,1.19,2.58,1.71,3.81
			c0.51,1.21,0.95,2.37,1.29,3.45c0.33,1.03,0.48,1.93,0.46,2.67c-0.02,0.76-0.33,1.44-0.93,2.07c-0.58,0.62-1.32,0.92-2.26,0.88
			c-1.04-0.03-1.91-0.23-2.58-0.59c-0.83-0.44-1.54-0.67-2.18-0.69c-0.33,0-0.65,0.12-0.93,0.39l0,0c-0.29,0.27-0.44,0.69-0.45,1.27
			c-0.01,0.44,0.02,0.85,0.1,1.23c0.07,0.36,0.17,0.72,0.29,1.13c0.12,0.33,0.42,0.62,0.96,0.92c0.42,0.24,0.92,0.47,1.48,0.7
			c0.56,0.22,1.13,0.41,1.7,0.55c0.6,0.15,1.08,0.22,1.48,0.24c0.08,0,0.15,0,0.23,0c1.46,0,2.69-0.43,3.66-1.28
			c0.96-0.85,1.76-1.83,2.35-2.92c0.59-1.08,1.01-2.15,1.25-3.18c0.24-1.05,0.36-1.71,0.37-2.07c0.05-1.81-0.24-3.74-0.88-5.74
			c-0.62-1.96-1.33-3.89-2.1-5.75c-0.77-1.84-1.46-3.56-2.09-5.16c-0.6-1.53-0.9-2.79-0.87-3.76c0.05-1.55,0.6-2.8,1.71-3.82
			c1.09-1.01,2.91-1.52,5.41-1.53c1.65-0.01,2.18-0.26,2.44-0.46c0.44-0.33,0.67-0.96,0.69-1.93
			C513.53,485.68,513.4,485.18,512.7,484.76z"/>
		<path class="st3" d="M552.87,517.41c-0.6-0.77-1.4-1.89-2.38-3.34c-0.98-1.45-2.21-3.45-3.66-5.94c-2.29-3.95-4.23-7.6-5.76-10.84
			c-1.55-3.27-3.01-6.34-4.39-9.21c-0.35-0.73-0.8-1.37-1.34-1.9c-0.63-0.62-1.07-0.89-1.46-0.89c0,0,0,0-0.01,0
			c-0.26,0-0.6,0.08-1.02,0.25c-0.38,0.15-0.77,0.35-1.15,0.59c-0.39,0.24-0.73,0.5-1,0.76c-0.37,0.35-0.55,0.68-0.54,1.03
			c0,0.18,0.05,0.4,0.15,0.68l0.55,1.5c0.09,0.24,0.09,0.33,0.09,0.34c0.01,0.86-0.26,2.05-0.78,3.56
			c-0.54,1.54-1.24,3.24-2.07,5.04c-0.84,1.82-1.77,3.7-2.77,5.58c-1,1.91-1.94,3.67-2.81,5.3l-2.22,4.16
			c-0.84,1.58-1.02,2.04-1.06,2.2c-0.35,0.98-0.8,1.66-1.33,2.02c-0.57,0.39-1.13,0.67-1.68,0.82c-0.41,0.12-0.7,0.34-0.86,0.63
			c-0.15,0.27-0.21,0.68-0.2,1.35c0,0.27,0.07,0.55,0.2,0.83c0.18,0.39,0.51,0.62,0.9,0.62c0.07,0,0.33-0.01,0.76-0.04
			c0.4-0.02,0.87-0.06,1.39-0.1c0.52-0.04,1.06-0.1,1.61-0.16c0.54-0.06,1.01-0.12,1.42-0.16c0.4-0.06,0.75-0.26,1-0.58
			c0.24-0.3,0.41-0.8,0.54-1.56c0.07-0.32,0.26-0.82,0.58-1.48c0.33-0.7,0.71-1.47,1.12-2.31l1.24-2.53
			c0.42-0.86,0.74-1.61,0.94-2.23c0.14-0.43,0.29-0.75,0.45-0.97c0.14-0.18,0.33-0.32,0.58-0.41c0.28-0.1,0.7-0.17,1.23-0.19
			c0.57-0.02,1.34-0.04,2.29-0.05c0.6,0,1.43,0,2.51,0.01c1.08,0.01,2.18,0.05,3.27,0.12c1.11,0.07,2.15,0.17,3.09,0.3
			c1.12,0.16,1.65,0.33,1.91,0.45c0.02,0.01,0.21,0.15,0.68,0.96c0.4,0.69,0.83,1.47,1.26,2.34c0.44,0.87,0.86,1.74,1.24,2.58
			c0.38,0.84,0.63,1.44,0.74,1.77c0.17,0.55,0.39,1.06,0.66,1.51c0.32,0.54,0.73,0.87,1.15,0.96c0.23,0.09,0.57,0.18,1.03,0.26
			c0.42,0.08,0.88,0.16,1.36,0.23c0.49,0.08,0.97,0.14,1.42,0.17c0.46,0.04,0.83,0.05,1.07,0.05c0.39,0,0.78-0.09,1.14-0.26
			c0.34-0.16,0.74-0.52,0.73-1.33c0-0.27-0.16-0.54-0.53-0.94C553.9,518.7,553.47,518.18,552.87,517.41z M539.99,505.94l-10.04,0.08
			c-0.25,0-0.41-0.02-0.5-0.04c0.03-0.1,0.09-0.26,0.22-0.52c0.2-0.38,0.52-1.04,0.95-1.97l3.07-6.38c0.13-0.27,0.24-0.56,0.33-0.87
			c0.07-0.27,0.16-0.54,0.25-0.81c0.06-0.18,0.13-0.34,0.21-0.51c0.03,0.06,0.06,0.14,0.1,0.26c0.15,0.54,0.48,1.26,0.98,2.22
			L539.99,505.94z"/>
		<path class="st3" d="M592.26,486.45c-0.22-0.33-0.69-0.73-1.61-0.66c-0.41,0.02-0.86,0.07-1.36,0.14c-0.51,0.07-1,0.19-1.45,0.34
			c-0.49,0.16-0.9,0.38-1.24,0.66c-0.39,0.33-0.62,0.76-0.64,1.31c0.02,0.32,0.11,0.73,0.27,1.25c0.14,0.45,0.29,1.07,0.46,1.85
			c0.16,0.76,0.33,1.71,0.53,2.89c0.18,1.12,0.32,2.47,0.41,4.01c0.11,1.93,0.15,3.85,0.12,5.69c-0.03,1.57-0.11,3.21-0.26,4.91
			c-0.62-0.53-1.48-1.3-2.58-2.32c-1.61-1.49-3.56-3.34-5.78-5.48c-2.18-2.1-4.61-4.51-7.23-7.14c-2.61-2.63-5.17-5.27-7.59-7.83
			c-0.38-0.42-0.7-0.71-0.98-0.86c-0.31-0.17-0.64-0.25-0.97-0.23c-0.26,0.01-0.52,0.08-0.79,0.2c-0.27,0.12-0.58,0.34-0.91,0.67
			l-2.04,1.85c-0.56,0.46-0.81,0.9-0.79,1.35c0.04,0.73,0.48,1.25,1.22,1.48c0.55,0.17,1.16,0.36,1.83,0.58
			c0.6,0.2,1.16,0.55,1.68,1.06c0.48,0.48,0.76,1.34,0.83,2.56c0.04,0.75,0.08,1.5,0.1,2.23c0.02,0.74,0.04,1.48,0.04,2.24
			l0.14,14.83c-0.01,1.16-0.11,2.12-0.29,2.84c-0.19,0.74-0.39,1.33-0.61,1.77c-0.23,0.46-0.43,0.84-0.6,1.15
			c-0.23,0.4-0.34,0.81-0.31,1.23c0.03,0.56,0.32,0.85,0.55,1c0.25,0.17,0.57,0.25,0.98,0.25c0.06,0,0.13,0,0.19-0.01
			c0.47-0.03,0.98-0.12,1.51-0.28c0.49-0.15,1.21-0.37,2.17-0.67c0.73-0.25,1.02-0.71,1.14-1.05c0.14-0.41,0.2-0.81,0.18-1.19
			c-0.03-0.48-0.09-1.18-0.18-2.08c-0.09-0.89-0.16-1.77-0.21-2.64c-0.06-1-0.12-2.22-0.19-3.68l-0.21-4.71
			c-0.08-1.68-0.13-3.42-0.15-5.17c-0.02-1.35-0.02-2.7-0.01-4.02c0.55,0.52,1.22,1.14,2,1.85c1.25,1.13,2.64,2.42,4.19,3.87
			c1.55,1.45,3.2,3.02,4.96,4.7c1.75,1.67,3.47,3.39,5.12,5.12c0.73,0.76,1.31,1.53,1.71,2.31c0.42,0.79,0.74,1.52,0.97,2.16
			c0.24,0.67,0.44,1.23,0.61,1.66c0.25,0.66,0.62,0.97,1.05,0.95c0.19-0.01,0.47-0.08,1.12-0.53c0.45-0.3,0.9-0.66,1.36-1.09
			c0.46-0.43,0.87-0.9,1.22-1.41c0.4-0.57,0.58-1.12,0.55-1.63c-0.07-1.28-0.17-2.5-0.27-3.64c-0.11-1.13-0.19-2.19-0.25-3.18
			c-0.19-3.25-0.25-6.08-0.19-8.39c0.06-2.33,0.17-4.3,0.32-5.84c0.15-1.56,0.29-2.81,0.44-3.72c0.15-0.97,0.21-1.66,0.19-2.1
			C592.68,487.32,592.53,486.85,592.26,486.45z"/>
		<path class="st3" d="M628.61,494.1c-0.39-4.08-0.62-7.04-0.67-8.82c-0.04-0.63,0-1.18,0.1-1.65c0.13-0.57,0.17-1.13,0.1-1.66
			c-0.07-0.56-0.69-0.92-1.23-1.16c-0.69-0.31-1.28-0.43-1.82-0.37c-0.38,0.05-0.82,0.27-1.35,0.69c-0.47,0.37-0.94,0.79-1.39,1.27
			c-0.45,0.47-0.84,0.97-1.16,1.48c-0.38,0.59-0.53,1.04-0.49,1.41c0.05,0.38,0.18,0.77,0.39,1.14c0.21,0.38,0.55,0.77,1.04,1.19
			c0.2,0.18,0.32,0.4,0.39,0.67c0.08,0.35,0.15,0.81,0.22,1.34c0.13,1.04,0.29,2.17,0.5,3.35c0.2,1.16,0.43,2.81,0.68,4.91
			c0.38,3.14,0.71,5.81,1,8.01c0.29,2.21,0.54,4.03,0.75,5.48c0.21,1.45,0.43,2.6,0.63,3.42c0.21,0.85,0.42,1.47,0.65,1.89
			c0.27,0.5,0.58,0.8,0.94,0.91c0.21,0.07,0.43,0.1,0.66,0.1c0.1,0,0.21-0.01,0.32-0.02c0.62-0.07,1.42-0.43,1.74-1.71
			c0.22-0.88,0.18-2.5-0.11-4.97C629.64,503.91,629.01,498.22,628.61,494.1z"/>
		<path class="st3" d="M654.08,499.06c-0.97-1.83-2.01-3.6-3.09-5.28c-1.08-1.67-2.07-3.24-2.98-4.7c-0.87-1.39-1.38-2.58-1.53-3.54
			c-0.23-1.54,0.09-2.87,1-4.07c0.89-1.19,2.59-2.02,5.06-2.47c1.63-0.3,2.1-0.65,2.32-0.88c0.37-0.4,0.48-1.07,0.34-2.02
			c-0.05-0.35-0.28-0.82-1.04-1.11c-0.46-0.17-0.99-0.29-1.56-0.36c-0.56-0.06-1.13-0.08-1.69-0.06c-0.55,0.02-0.98,0.05-1.29,0.1
			c-1.37,0.21-2.63,0.91-3.73,2.1c-1.05,1.13-1.95,2.44-2.67,3.88c-0.71,1.43-1.25,2.84-1.6,4.19c-0.37,1.41-0.49,2.45-0.38,3.2
			c0.12,0.81,0.47,1.75,1.03,2.8c0.54,1.02,1.19,2.11,1.93,3.24c0.74,1.13,1.54,2.3,2.38,3.48c0.82,1.16,1.62,2.32,2.36,3.45
			c0.72,1.1,1.35,2.17,1.88,3.16c0.51,0.96,0.82,1.81,0.93,2.54c0.11,0.75-0.06,1.47-0.54,2.2c-0.46,0.71-1.14,1.13-2.07,1.27
			c-1.03,0.15-1.92,0.11-2.64-0.12c-0.89-0.29-1.64-0.38-2.27-0.29c-0.33,0.05-0.62,0.24-0.85,0.55l0,0
			c-0.24,0.32-0.31,0.75-0.22,1.33c0.07,0.44,0.17,0.84,0.31,1.19c0.13,0.34,0.29,0.68,0.49,1.06c0.17,0.3,0.53,0.53,1.1,0.73
			c0.46,0.16,0.99,0.3,1.58,0.42c0.59,0.12,1.19,0.2,1.77,0.24c0.23,0.01,0.45,0.02,0.65,0.02c0.32,0,0.61-0.02,0.84-0.05
			c1.55-0.23,2.76-0.89,3.6-1.95c0.8-1.01,1.4-2.11,1.79-3.29c0.39-1.17,0.61-2.29,0.66-3.35c0.05-1.08,0.05-1.75,0-2.1
			C655.7,502.77,655.07,500.92,654.08,499.06z"/>
		<path class="st3" d="M671.6,487.44c-0.64-4.05-1.04-6.99-1.2-8.76c-0.08-0.62-0.08-1.18,0-1.66c0.1-0.58,0.1-1.14,0-1.67
			c-0.1-0.56-0.75-0.87-1.3-1.08c-0.71-0.27-1.31-0.35-1.84-0.26c-0.38,0.07-0.79,0.31-1.31,0.77c-0.45,0.4-0.89,0.85-1.31,1.35
			c-0.42,0.5-0.78,1.02-1.07,1.54c-0.34,0.62-0.47,1.07-0.4,1.43c0.07,0.38,0.22,0.76,0.46,1.12c0.23,0.36,0.6,0.74,1.11,1.13
			c0.21,0.17,0.35,0.38,0.43,0.65c0.1,0.35,0.2,0.8,0.3,1.33c0.19,1.02,0.42,2.13,0.7,3.31h0c0.27,1.15,0.6,2.78,0.98,4.86
			c0.57,3.11,1.06,5.76,1.48,7.94c0.42,2.18,0.78,3.99,1.08,5.42c0.3,1.44,0.58,2.58,0.83,3.37c0.26,0.84,0.51,1.44,0.77,1.85
			c0.3,0.48,0.63,0.76,1,0.86c0.17,0.04,0.34,0.06,0.52,0.06c0.15,0,0.3-0.01,0.46-0.04c0.61-0.11,1.39-0.52,1.64-1.81
			c0.17-0.89,0.03-2.51-0.41-4.96C673.21,497.13,672.23,491.5,671.6,487.44z"/>
		<path class="st3" d="M710.4,479.33c-0.52-2.28-1.37-4.18-2.51-5.64c-1.13-1.45-2.42-2.61-3.82-3.44c-1.39-0.82-2.87-1.4-4.38-1.71
			c-1.48-0.3-2.87-0.48-4.11-0.53c-1.24-0.05-2.31-0.02-3.17,0.09c-1.13,0.15-1.38,0.19-1.48,0.21c-0.3,0.07-0.71,0.22-1.25,0.45
			c-0.52,0.23-1.19,0.56-2,0.99l-3.83,2.11c-1.01,0.59-1.62,1.01-1.91,1.34c-0.35,0.41-0.45,0.97-0.29,1.68
			c0.15,0.64,0.45,1,0.89,1.09c0.28,0.06,0.58,0.07,0.89,0.05c0.24-0.02,0.48-0.03,0.72-0.03c0.09,0,0.19,0.14,0.22,0.21
			c0.24,0.51,0.51,1.17,0.81,1.96c0.31,0.81,0.62,1.68,0.94,2.63c0.32,0.95,0.62,1.91,0.9,2.88c0.28,0.97,0.52,1.88,0.72,2.73
			c0.48,2.1,0.97,4.41,1.45,6.85c0.48,2.47,0.93,4.89,1.35,7.25c0.13,0.72,0.15,1.29,0.07,1.71c-0.09,0.42-0.2,0.75-0.33,0.99
			c-0.16,0.28-0.3,0.52-0.43,0.73c-0.21,0.33-0.26,0.72-0.16,1.17c0.11,0.5,0.46,0.84,0.97,0.95c0.19,0.04,0.43,0.06,0.71,0.06
			c0.27,0,0.59-0.02,0.96-0.06l3.37-0.34c0.32-0.03,0.66-0.06,1.04-0.09c0.41-0.03,0.82-0.09,1.24-0.18
			c0.27-0.06,0.7-0.23,1.34-0.54c0.61-0.29,1.31-0.65,2.09-1.07c0.79-0.43,1.64-0.94,2.55-1.52c0.9-0.58,1.78-1.2,2.61-1.85
			c0.84-0.65,1.59-1.35,2.25-2.06c0.67-0.74,1.18-1.48,1.49-2.22c0.49-1.16,0.86-2.31,1.11-3.44c0.25-1.13,0.38-2.36,0.4-3.67
			c0.02-1.3-0.1-2.76-0.34-4.34C711.22,483.19,710.86,481.36,710.4,479.33z M693.43,490.17l-3.73-16.28
			c0.35-0.33,0.81-0.66,1.38-1.01c0.67-0.4,1.32-0.68,1.93-0.82c0.33-0.08,1.03-0.13,2.48,0.08c1.17,0.16,2.43,0.6,3.75,1.3
			c1.32,0.7,2.58,1.76,3.77,3.14c1.17,1.37,2.04,3.27,2.58,5.63c0.75,3.29,1.08,6.09,0.97,8.32c-0.11,2.2-0.55,4.03-1.32,5.46
			c-0.76,1.41-1.8,2.51-3.11,3.27c-1.35,0.78-2.93,1.39-4.7,1.79c-0.55,0.13-0.95,0.08-1.23-0.14c-0.14-0.11-0.51-0.57-0.93-2.42
			c-0.28-1.21-0.57-2.52-0.87-3.95v0C694.09,493.11,693.77,491.65,693.43,490.17z"/>
		<path class="st3" d="M751.51,485.03c-0.92-0.44-2.13-1.03-3.65-1.79c-1.49-0.75-3.25-1.69-5.22-2.79
			c-1.95-1.09-4.04-2.41-6.21-3.91c-0.39-0.29-0.82-0.46-1.25-0.49l2.62-2.25c0.46-0.4,0.91-0.94,1.34-1.6
			c0.42-0.66,0.77-1.44,1.04-2.33c0.26-0.89,0.4-1.9,0.4-3.01c0-1.11-0.19-2.31-0.56-3.58c-0.67-2.29-1.88-4.06-3.57-5.27v0
			c-1.74-1.24-3.9-1.49-6.42-0.75c-0.45,0.13-1.04,0.38-1.78,0.75c-0.73,0.37-1.52,0.85-2.37,1.44c-0.84,0.58-1.72,1.28-2.63,2.08
			c-0.92,0.81-1.78,1.72-2.53,2.7c-0.5,0.62-0.64,1.37-0.4,2.17c0.15,0.51,0.38,0.85,0.69,1.05c0.26,0.17,0.53,0.27,0.8,0.3
			c0.18,0.03,0.37,0.06,0.55,0.1c0.02,0.01,0.08,0.06,0.15,0.22c0.41,0.98,0.87,2.21,1.36,3.66c0.49,1.44,0.97,2.98,1.45,4.59
			l0.9,3.05c0.2,0.69,0.48,1.71,0.84,3.05c0.36,1.35,0.71,2.73,1.06,4.12c0.35,1.39,0.63,2.65,0.86,3.76
			c0.29,1.44,0.26,1.75,0.27,1.75c-0.19,0.52-0.34,0.96-0.46,1.34c-0.15,0.47-0.19,0.84-0.1,1.14c0.13,0.43,0.49,0.75,1.06,0.95
			c0.45,0.16,0.96,0.27,1.52,0.33c0.39,0.04,0.79,0.06,1.17,0.06c0.14,0,0.28,0,0.42-0.01c0.54-0.02,0.95-0.08,1.27-0.17
			c0.75-0.22,1.01-0.65,1.09-0.98c0.1-0.38,0.1-0.78-0.02-1.17l-2.76-9.38c-0.28-0.95-0.52-1.8-0.71-2.53
			c-0.15-0.54-0.28-1.06-0.39-1.54c0.28-0.05,0.55-0.08,0.79-0.07c0.35,0.01,0.75,0.15,1.19,0.42l8.2,4.9
			c1.76,1.05,3.16,1.94,4.16,2.63c1.02,0.7,1.9,1.3,2.62,1.79c0.5,0.35,0.92,0.53,1.29,0.56c0.34,0.03,0.69-0.01,1.06-0.12
			l0.92-0.27c0.31-0.09,0.57-0.3,0.76-0.61c0.13-0.21,0.32-0.54,0.57-1c0.25-0.45,0.39-0.82,0.43-1.13
			c0.04-0.31,0.01-0.64-0.08-0.97C753.15,485.98,752.98,485.73,751.51,485.03z M735.15,469.21c-0.38,1.21-0.91,2.29-1.57,3.22
			c-0.67,0.95-1.34,1.72-1.98,2.31c-0.72,0.66-0.96,0.83-1.02,0.87c-0.28,0.08-0.47,0.08-0.55,0.04l-0.69-2.35
			c-0.24-0.8-0.47-1.65-0.69-2.56c-0.23-0.91-0.43-1.79-0.63-2.65c-0.19-0.85-0.34-1.61-0.46-2.28c-0.1-0.59-0.15-1.07-0.15-1.41
			c0.22-0.62,0.59-1.14,1.14-1.59c0.58-0.48,1.18-0.81,1.76-0.98c0.95-0.28,1.84-0.17,2.72,0.32c0.88,0.49,1.59,1.64,2.11,3.42
			C735.52,466.83,735.52,468.05,735.15,469.21z"/>
		<path class="st3" d="M781.66,460.37c-0.98-2.62-2.15-4.81-3.49-6.51c-1.34-1.71-2.79-3.02-4.31-3.89
			c-1.53-0.88-3.13-1.36-4.77-1.44c-1.62-0.08-3.24,0.17-4.8,0.76c-2.65,0.99-4.75,2.37-6.25,4.1c-1.49,1.72-2.54,3.64-3.13,5.71
			c-0.59,2.06-0.79,4.2-0.59,6.36c0.19,2.14,0.64,4.17,1.34,6.04c0.89,2.37,2.05,4.35,3.46,5.89c1.4,1.53,2.94,2.71,4.55,3.49
			c1.62,0.79,3.31,1.22,5.02,1.29c0.19,0.01,0.39,0.01,0.58,0.01c1.49,0,2.89-0.24,4.17-0.72c1.82-0.68,3.46-1.69,4.87-3.02
			c1.42-1.32,2.55-2.92,3.37-4.74c0.81-1.82,1.25-3.89,1.31-6.14C783.05,465.3,782.6,462.88,781.66,460.37z M778.43,468.45
			c-0.04,1.58-0.33,2.93-0.87,4.01c-0.54,1.08-1.21,1.94-2.01,2.55c-0.82,0.63-1.6,1.09-2.34,1.36c-1.76,0.66-3.38,0.76-4.81,0.31
			c-1.48-0.46-2.79-1.18-3.89-2.13c-1.12-0.96-2.05-2.02-2.75-3.14l0,0c-0.72-1.14-1.2-2.04-1.44-2.68
			c-0.58-1.56-0.95-3.15-1.08-4.71c-0.13-1.55-0.01-3,0.35-4.32c0.36-1.3,0.98-2.49,1.85-3.52c0.86-1.02,1.99-1.79,3.36-2.31
			c0.9-0.34,1.85-0.51,2.82-0.51c0.12,0,0.25,0,0.37,0.01c1.09,0.05,2.18,0.39,3.25,1c1.08,0.63,2.15,1.62,3.18,2.95
			c1.04,1.35,2,3.18,2.84,5.44C778.08,464.95,778.47,466.86,778.43,468.45z"/>
	</g>
</g>
</svg>
